<mxfile host="Electron" modified="2024-08-04T01:53:42.324Z" agent="Mozilla/5.0 (Macintosh; Intel Mac OS X 10_15_7) AppleWebKit/537.36 (KHTML, like Gecko) draw.io/21.6.1 Chrome/112.0.5615.204 Electron/24.6.1 Safari/537.36" etag="ZKxTLT7FEwGcBsIJfy-j" version="21.6.1" type="device">
  <diagram name="Pagina-1" id="fdz4QXpkvpul3tvmRbTT">
    <mxGraphModel dx="954" dy="1771" grid="1" gridSize="10" guides="1" tooltips="1" connect="1" arrows="1" fold="1" page="1" pageScale="1" pageWidth="827" pageHeight="1169" math="0" shadow="0">
      <root>
        <mxCell id="0" />
        <mxCell id="1" parent="0" />
        <mxCell id="l76QbwL-3-QyEtIjUvNq-57" style="edgeStyle=orthogonalEdgeStyle;rounded=0;orthogonalLoop=1;jettySize=auto;html=1;entryX=0.55;entryY=0.95;entryDx=0;entryDy=0;entryPerimeter=0;startArrow=classic;startFill=1;" parent="1" source="l76QbwL-3-QyEtIjUvNq-1" target="l76QbwL-3-QyEtIjUvNq-52" edge="1">
          <mxGeometry relative="1" as="geometry" />
        </mxCell>
        <mxCell id="l76QbwL-3-QyEtIjUvNq-58" value="Pay" style="edgeLabel;html=1;align=center;verticalAlign=middle;resizable=0;points=[];" parent="l76QbwL-3-QyEtIjUvNq-57" vertex="1" connectable="0">
          <mxGeometry x="0.7843" y="-1" relative="1" as="geometry">
            <mxPoint as="offset" />
          </mxGeometry>
        </mxCell>
        <mxCell id="l76QbwL-3-QyEtIjUvNq-1" value="User" style="shape=umlActor;verticalLabelPosition=bottom;verticalAlign=top;html=1;outlineConnect=0;" parent="1" vertex="1">
          <mxGeometry x="430" y="590" width="30" height="60" as="geometry" />
        </mxCell>
        <mxCell id="l76QbwL-3-QyEtIjUvNq-3" value="WebServer" style="verticalAlign=top;align=left;spacingTop=8;spacingLeft=2;spacingRight=12;shape=cube;size=10;direction=south;fontStyle=4;html=1;whiteSpace=wrap;" parent="1" vertex="1">
          <mxGeometry x="400" y="310" width="90" height="40" as="geometry" />
        </mxCell>
        <mxCell id="l76QbwL-3-QyEtIjUvNq-19" style="edgeStyle=orthogonalEdgeStyle;rounded=0;orthogonalLoop=1;jettySize=auto;html=1;startArrow=classic;startFill=1;" parent="1" target="l76QbwL-3-QyEtIjUvNq-1" edge="1">
          <mxGeometry relative="1" as="geometry">
            <mxPoint x="445" y="530" as="sourcePoint" />
          </mxGeometry>
        </mxCell>
        <mxCell id="l76QbwL-3-QyEtIjUvNq-20" value="User&lt;br&gt;Interface" style="edgeLabel;html=1;align=center;verticalAlign=middle;resizable=0;points=[];" parent="l76QbwL-3-QyEtIjUvNq-19" vertex="1" connectable="0">
          <mxGeometry x="-0.1543" relative="1" as="geometry">
            <mxPoint as="offset" />
          </mxGeometry>
        </mxCell>
        <mxCell id="l76QbwL-3-QyEtIjUvNq-24" value="" style="edgeStyle=orthogonalEdgeStyle;rounded=0;orthogonalLoop=1;jettySize=auto;html=1;" parent="1" edge="1">
          <mxGeometry relative="1" as="geometry">
            <mxPoint x="411" y="462" as="sourcePoint" />
            <mxPoint x="411" y="350" as="targetPoint" />
          </mxGeometry>
        </mxCell>
        <mxCell id="l76QbwL-3-QyEtIjUvNq-25" value="Exchange&amp;nbsp;&lt;br&gt;requests&lt;br&gt;" style="edgeLabel;html=1;align=center;verticalAlign=middle;resizable=0;points=[];" parent="l76QbwL-3-QyEtIjUvNq-24" vertex="1" connectable="0">
          <mxGeometry x="0.125" y="1" relative="1" as="geometry">
            <mxPoint as="offset" />
          </mxGeometry>
        </mxCell>
        <mxCell id="l76QbwL-3-QyEtIjUvNq-38" style="edgeStyle=orthogonalEdgeStyle;rounded=0;orthogonalLoop=1;jettySize=auto;html=1;exitX=0;exitY=0;exitDx=58;exitDy=0;exitPerimeter=0;entryX=0.55;entryY=0.95;entryDx=0;entryDy=0;entryPerimeter=0;" parent="1" target="l76QbwL-3-QyEtIjUvNq-33" edge="1">
          <mxGeometry relative="1" as="geometry">
            <mxPoint x="490" y="520" as="sourcePoint" />
          </mxGeometry>
        </mxCell>
        <mxCell id="l76QbwL-3-QyEtIjUvNq-39" value="Get media files&lt;br&gt;with authorised&lt;br&gt;URLs" style="edgeLabel;html=1;align=center;verticalAlign=middle;resizable=0;points=[];" parent="l76QbwL-3-QyEtIjUvNq-38" vertex="1" connectable="0">
          <mxGeometry x="0.1649" y="2" relative="1" as="geometry">
            <mxPoint as="offset" />
          </mxGeometry>
        </mxCell>
        <mxCell id="l76QbwL-3-QyEtIjUvNq-34" style="edgeStyle=orthogonalEdgeStyle;rounded=0;orthogonalLoop=1;jettySize=auto;html=1;exitX=0;exitY=0;exitDx=0;exitDy=60;exitPerimeter=0;" parent="1" source="l76QbwL-3-QyEtIjUvNq-21" target="l76QbwL-3-QyEtIjUvNq-33" edge="1">
          <mxGeometry relative="1" as="geometry">
            <Array as="points">
              <mxPoint x="460" y="100" />
            </Array>
          </mxGeometry>
        </mxCell>
        <mxCell id="l76QbwL-3-QyEtIjUvNq-35" value="Get url to media file&lt;br&gt;(signed if private)" style="edgeLabel;html=1;align=center;verticalAlign=middle;resizable=0;points=[];" parent="l76QbwL-3-QyEtIjUvNq-34" vertex="1" connectable="0">
          <mxGeometry x="0.0308" relative="1" as="geometry">
            <mxPoint x="30" as="offset" />
          </mxGeometry>
        </mxCell>
        <mxCell id="l76QbwL-3-QyEtIjUvNq-41" style="edgeStyle=orthogonalEdgeStyle;rounded=0;orthogonalLoop=1;jettySize=auto;html=1;entryX=0.5;entryY=1;entryDx=0;entryDy=0;entryPerimeter=0;exitX=0.014;exitY=0.808;exitDx=0;exitDy=0;exitPerimeter=0;startArrow=classic;startFill=1;" parent="1" source="l76QbwL-3-QyEtIjUvNq-21" target="l76QbwL-3-QyEtIjUvNq-40" edge="1">
          <mxGeometry relative="1" as="geometry" />
        </mxCell>
        <mxCell id="l76QbwL-3-QyEtIjUvNq-42" value="Read/&lt;br&gt;Write" style="edgeLabel;html=1;align=center;verticalAlign=middle;resizable=0;points=[];" parent="l76QbwL-3-QyEtIjUvNq-41" vertex="1" connectable="0">
          <mxGeometry x="0.4045" y="-2" relative="1" as="geometry">
            <mxPoint as="offset" />
          </mxGeometry>
        </mxCell>
        <mxCell id="l76QbwL-3-QyEtIjUvNq-49" style="edgeStyle=orthogonalEdgeStyle;rounded=0;orthogonalLoop=1;jettySize=auto;html=1;exitX=0;exitY=0;exitDx=10;exitDy=130;exitPerimeter=0;entryX=0.62;entryY=-0.02;entryDx=0;entryDy=0;entryPerimeter=0;" parent="1" source="l76QbwL-3-QyEtIjUvNq-21" edge="1">
          <mxGeometry relative="1" as="geometry">
            <mxPoint x="312" y="150" as="targetPoint" />
            <Array as="points">
              <mxPoint x="350" y="150" />
            </Array>
          </mxGeometry>
        </mxCell>
        <mxCell id="l76QbwL-3-QyEtIjUvNq-53" style="edgeStyle=orthogonalEdgeStyle;rounded=0;orthogonalLoop=1;jettySize=auto;html=1;entryX=0.07;entryY=0.4;entryDx=0;entryDy=0;entryPerimeter=0;" parent="1" source="l76QbwL-3-QyEtIjUvNq-21" target="l76QbwL-3-QyEtIjUvNq-52" edge="1">
          <mxGeometry relative="1" as="geometry">
            <mxPoint x="680" y="30" as="targetPoint" />
            <Array as="points">
              <mxPoint x="455" y="-8" />
            </Array>
          </mxGeometry>
        </mxCell>
        <mxCell id="l76QbwL-3-QyEtIjUvNq-56" value="Create payment intents" style="edgeLabel;html=1;align=center;verticalAlign=middle;resizable=0;points=[];" parent="l76QbwL-3-QyEtIjUvNq-53" vertex="1" connectable="0">
          <mxGeometry x="0.2606" y="-2" relative="1" as="geometry">
            <mxPoint as="offset" />
          </mxGeometry>
        </mxCell>
        <mxCell id="l76QbwL-3-QyEtIjUvNq-69" style="edgeStyle=orthogonalEdgeStyle;rounded=0;orthogonalLoop=1;jettySize=auto;html=1;entryX=0;entryY=0;entryDx=0;entryDy=0;" parent="1" source="l76QbwL-3-QyEtIjUvNq-21" target="l76QbwL-3-QyEtIjUvNq-65" edge="1">
          <mxGeometry relative="1" as="geometry">
            <Array as="points">
              <mxPoint x="550" y="190" />
              <mxPoint x="550" y="190" />
            </Array>
          </mxGeometry>
        </mxCell>
        <mxCell id="l76QbwL-3-QyEtIjUvNq-70" value="Dispatch&lt;br&gt;chat&lt;br&gt;messages" style="edgeLabel;html=1;align=center;verticalAlign=middle;resizable=0;points=[];" parent="l76QbwL-3-QyEtIjUvNq-69" vertex="1" connectable="0">
          <mxGeometry x="-0.1971" y="-1" relative="1" as="geometry">
            <mxPoint x="3" y="22" as="offset" />
          </mxGeometry>
        </mxCell>
        <mxCell id="l76QbwL-3-QyEtIjUvNq-21" value="Backend" style="verticalAlign=top;align=left;spacingTop=8;spacingLeft=2;spacingRight=12;shape=cube;size=10;direction=south;fontStyle=4;html=1;whiteSpace=wrap;" parent="1" vertex="1">
          <mxGeometry x="369" y="140" width="170" height="91.54" as="geometry" />
        </mxCell>
        <mxCell id="l76QbwL-3-QyEtIjUvNq-36" style="edgeStyle=orthogonalEdgeStyle;rounded=0;orthogonalLoop=1;jettySize=auto;html=1;entryX=0;entryY=0;entryDx=30;entryDy=0;entryPerimeter=0;" parent="1" source="l76QbwL-3-QyEtIjUvNq-33" target="l76QbwL-3-QyEtIjUvNq-21" edge="1">
          <mxGeometry relative="1" as="geometry">
            <Array as="points">
              <mxPoint x="640" y="170" />
            </Array>
          </mxGeometry>
        </mxCell>
        <mxCell id="l76QbwL-3-QyEtIjUvNq-37" value="Return URLs" style="edgeLabel;html=1;align=center;verticalAlign=middle;resizable=0;points=[];" parent="l76QbwL-3-QyEtIjUvNq-36" vertex="1" connectable="0">
          <mxGeometry x="0.0474" y="-2" relative="1" as="geometry">
            <mxPoint x="-14" as="offset" />
          </mxGeometry>
        </mxCell>
        <mxCell id="l76QbwL-3-QyEtIjUvNq-33" value="Storage/&lt;br&gt;CDN" style="ellipse;shape=cloud;whiteSpace=wrap;html=1;" parent="1" vertex="1">
          <mxGeometry x="610" y="60" width="120" height="80" as="geometry" />
        </mxCell>
        <mxCell id="l76QbwL-3-QyEtIjUvNq-40" value="Database" style="shape=cylinder3;whiteSpace=wrap;html=1;boundedLbl=1;backgroundOutline=1;size=15;" parent="1" vertex="1">
          <mxGeometry x="385" y="-70" width="60" height="80" as="geometry" />
        </mxCell>
        <mxCell id="GdtlTfJhkLCehxx7cX15-3" style="edgeStyle=orthogonalEdgeStyle;rounded=0;orthogonalLoop=1;jettySize=auto;html=1;entryX=0.55;entryY=0.95;entryDx=0;entryDy=0;entryPerimeter=0;" parent="1" source="l76QbwL-3-QyEtIjUvNq-43" target="GdtlTfJhkLCehxx7cX15-2" edge="1">
          <mxGeometry relative="1" as="geometry" />
        </mxCell>
        <mxCell id="GdtlTfJhkLCehxx7cX15-4" value="Send analytics&amp;nbsp;&lt;br&gt;data" style="edgeLabel;html=1;align=center;verticalAlign=middle;resizable=0;points=[];" parent="GdtlTfJhkLCehxx7cX15-3" vertex="1" connectable="0">
          <mxGeometry x="-0.0762" y="-1" relative="1" as="geometry">
            <mxPoint x="33" y="1" as="offset" />
          </mxGeometry>
        </mxCell>
        <mxCell id="l76QbwL-3-QyEtIjUvNq-43" value="Frontend" style="html=1;whiteSpace=wrap;" parent="1" vertex="1">
          <mxGeometry x="380" y="460" width="110" height="70" as="geometry" />
        </mxCell>
        <mxCell id="l76QbwL-3-QyEtIjUvNq-48" style="edgeStyle=orthogonalEdgeStyle;rounded=0;orthogonalLoop=1;jettySize=auto;html=1;entryX=1.08;entryY=0.63;entryDx=0;entryDy=0;entryPerimeter=0;" parent="1" target="l76QbwL-3-QyEtIjUvNq-46" edge="1">
          <mxGeometry relative="1" as="geometry">
            <mxPoint x="246" y="119" as="sourcePoint" />
            <Array as="points">
              <mxPoint x="246" y="110" />
              <mxPoint x="246" y="110" />
            </Array>
          </mxGeometry>
        </mxCell>
        <mxCell id="l76QbwL-3-QyEtIjUvNq-50" style="edgeStyle=orthogonalEdgeStyle;rounded=0;orthogonalLoop=1;jettySize=auto;html=1;entryX=0;entryY=0;entryDx=0;entryDy=52.5;entryPerimeter=0;startArrow=classic;startFill=1;" parent="1" source="l76QbwL-3-QyEtIjUvNq-46" target="l76QbwL-3-QyEtIjUvNq-40" edge="1">
          <mxGeometry relative="1" as="geometry" />
        </mxCell>
        <mxCell id="l76QbwL-3-QyEtIjUvNq-51" value="Read/&lt;br&gt;Write" style="edgeLabel;html=1;align=center;verticalAlign=middle;resizable=0;points=[];" parent="l76QbwL-3-QyEtIjUvNq-50" vertex="1" connectable="0">
          <mxGeometry x="0.0326" relative="1" as="geometry">
            <mxPoint x="1" y="1" as="offset" />
          </mxGeometry>
        </mxCell>
        <mxCell id="l76QbwL-3-QyEtIjUvNq-76" style="edgeStyle=orthogonalEdgeStyle;rounded=0;orthogonalLoop=1;jettySize=auto;html=1;" parent="1" source="l76QbwL-3-QyEtIjUvNq-46" target="l76QbwL-3-QyEtIjUvNq-33" edge="1">
          <mxGeometry relative="1" as="geometry">
            <Array as="points">
              <mxPoint x="260" y="-100" />
              <mxPoint x="670" y="-100" />
            </Array>
          </mxGeometry>
        </mxCell>
        <mxCell id="l76QbwL-3-QyEtIjUvNq-77" value="Access media file&lt;br&gt;Store backups" style="edgeLabel;html=1;align=center;verticalAlign=middle;resizable=0;points=[];" parent="l76QbwL-3-QyEtIjUvNq-76" vertex="1" connectable="0">
          <mxGeometry x="0.1036" relative="1" as="geometry">
            <mxPoint as="offset" />
          </mxGeometry>
        </mxCell>
        <mxCell id="l76QbwL-3-QyEtIjUvNq-46" value="Asynchronous&lt;br&gt;tasks runner" style="verticalAlign=top;align=left;spacingTop=8;spacingLeft=2;spacingRight=12;shape=cube;size=10;direction=south;fontStyle=4;html=1;whiteSpace=wrap;" parent="1" vertex="1">
          <mxGeometry x="209" y="-40" width="101" height="50" as="geometry" />
        </mxCell>
        <mxCell id="l76QbwL-3-QyEtIjUvNq-54" style="edgeStyle=orthogonalEdgeStyle;rounded=0;orthogonalLoop=1;jettySize=auto;html=1;exitX=0.13;exitY=0.77;exitDx=0;exitDy=0;exitPerimeter=0;" parent="1" source="l76QbwL-3-QyEtIjUvNq-52" edge="1">
          <mxGeometry relative="1" as="geometry">
            <mxPoint x="470" y="140" as="targetPoint" />
            <Array as="points">
              <mxPoint x="470" y="22" />
              <mxPoint x="470" y="140" />
            </Array>
          </mxGeometry>
        </mxCell>
        <mxCell id="l76QbwL-3-QyEtIjUvNq-55" value="Webhooks/&lt;br&gt;Return payments intent" style="edgeLabel;html=1;align=center;verticalAlign=middle;resizable=0;points=[];" parent="l76QbwL-3-QyEtIjUvNq-54" vertex="1" connectable="0">
          <mxGeometry x="-0.4599" y="2" relative="1" as="geometry">
            <mxPoint x="-57" as="offset" />
          </mxGeometry>
        </mxCell>
        <mxCell id="l76QbwL-3-QyEtIjUvNq-52" value="Payment&amp;nbsp;&lt;br&gt;System" style="ellipse;shape=cloud;whiteSpace=wrap;html=1;" parent="1" vertex="1">
          <mxGeometry x="700" y="-40" width="120" height="80" as="geometry" />
        </mxCell>
        <mxCell id="l76QbwL-3-QyEtIjUvNq-59" value="Cache" style="html=1;whiteSpace=wrap;" parent="1" vertex="1">
          <mxGeometry x="377" y="90" width="55" height="25" as="geometry" />
        </mxCell>
        <mxCell id="l76QbwL-3-QyEtIjUvNq-63" value="HTTP" style="html=1;whiteSpace=wrap;dashed=1;" parent="1" vertex="1">
          <mxGeometry x="390" y="190" width="40" height="30" as="geometry" />
        </mxCell>
        <mxCell id="l76QbwL-3-QyEtIjUvNq-71" style="edgeStyle=orthogonalEdgeStyle;rounded=0;orthogonalLoop=1;jettySize=auto;html=1;exitX=0.25;exitY=1;exitDx=0;exitDy=0;entryX=0.674;entryY=-0.029;entryDx=0;entryDy=0;entryPerimeter=0;startArrow=classic;startFill=1;" parent="1" edge="1">
          <mxGeometry relative="1" as="geometry">
            <mxPoint x="462.6" y="350" as="sourcePoint" />
            <mxPoint x="463.1400000000001" y="457.9699999999998" as="targetPoint" />
          </mxGeometry>
        </mxCell>
        <mxCell id="l76QbwL-3-QyEtIjUvNq-72" value="Chat" style="edgeLabel;html=1;align=center;verticalAlign=middle;resizable=0;points=[];" parent="l76QbwL-3-QyEtIjUvNq-71" vertex="1" connectable="0">
          <mxGeometry x="-0.3478" relative="1" as="geometry">
            <mxPoint y="-6" as="offset" />
          </mxGeometry>
        </mxCell>
        <mxCell id="l76QbwL-3-QyEtIjUvNq-64" value="WebSockets" style="html=1;whiteSpace=wrap;dashed=1;" parent="1" vertex="1">
          <mxGeometry x="440" y="190" width="80" height="30" as="geometry" />
        </mxCell>
        <mxCell id="l76QbwL-3-QyEtIjUvNq-68" style="edgeStyle=orthogonalEdgeStyle;rounded=0;orthogonalLoop=1;jettySize=auto;html=1;entryX=0.75;entryY=1;entryDx=0;entryDy=0;" parent="1" source="l76QbwL-3-QyEtIjUvNq-65" target="l76QbwL-3-QyEtIjUvNq-64" edge="1">
          <mxGeometry relative="1" as="geometry">
            <Array as="points">
              <mxPoint x="637" y="240" />
              <mxPoint x="500" y="240" />
            </Array>
          </mxGeometry>
        </mxCell>
        <mxCell id="l76QbwL-3-QyEtIjUvNq-65" value="Message&lt;br&gt;broker" style="html=1;whiteSpace=wrap;" parent="1" vertex="1">
          <mxGeometry x="610" y="190" width="55" height="30" as="geometry" />
        </mxCell>
        <mxCell id="l76QbwL-3-QyEtIjUvNq-66" value="Message&lt;br&gt;broker" style="html=1;whiteSpace=wrap;" parent="1" vertex="1">
          <mxGeometry x="210" y="115" width="100" height="45" as="geometry" />
        </mxCell>
        <mxCell id="l76QbwL-3-QyEtIjUvNq-73" style="edgeStyle=orthogonalEdgeStyle;rounded=0;orthogonalLoop=1;jettySize=auto;html=1;exitX=0.25;exitY=1;exitDx=0;exitDy=0;startArrow=classic;startFill=1;entryX=-0.029;entryY=0.204;entryDx=0;entryDy=0;entryPerimeter=0;" parent="1" target="l76QbwL-3-QyEtIjUvNq-3" edge="1">
          <mxGeometry relative="1" as="geometry">
            <mxPoint x="471.04" y="220" as="sourcePoint" />
            <mxPoint x="470" y="310" as="targetPoint" />
          </mxGeometry>
        </mxCell>
        <mxCell id="l76QbwL-3-QyEtIjUvNq-74" value="Chat" style="edgeLabel;html=1;align=center;verticalAlign=middle;resizable=0;points=[];" parent="l76QbwL-3-QyEtIjUvNq-73" vertex="1" connectable="0">
          <mxGeometry x="-0.3478" relative="1" as="geometry">
            <mxPoint y="-6" as="offset" />
          </mxGeometry>
        </mxCell>
        <mxCell id="l76QbwL-3-QyEtIjUvNq-27" style="edgeStyle=orthogonalEdgeStyle;rounded=0;orthogonalLoop=1;jettySize=auto;html=1;exitX=0;exitY=0;exitDx=0;exitDy=80;exitPerimeter=0;" parent="1" source="l76QbwL-3-QyEtIjUvNq-3" target="l76QbwL-3-QyEtIjUvNq-63" edge="1">
          <mxGeometry relative="1" as="geometry">
            <Array as="points">
              <mxPoint x="360" y="310" />
              <mxPoint x="360" y="205" />
            </Array>
          </mxGeometry>
        </mxCell>
        <mxCell id="l76QbwL-3-QyEtIjUvNq-28" value="Forward&lt;br&gt;client&lt;br&gt;requests" style="edgeLabel;html=1;align=center;verticalAlign=middle;resizable=0;points=[];" parent="l76QbwL-3-QyEtIjUvNq-27" vertex="1" connectable="0">
          <mxGeometry x="0.4139" y="-3" relative="1" as="geometry">
            <mxPoint x="1" y="20" as="offset" />
          </mxGeometry>
        </mxCell>
        <mxCell id="GdtlTfJhkLCehxx7cX15-2" value="Analytics&lt;br&gt;service" style="ellipse;shape=cloud;whiteSpace=wrap;html=1;" parent="1" vertex="1">
          <mxGeometry x="190" y="340" width="120" height="80" as="geometry" />
        </mxCell>
      </root>
    </mxGraphModel>
  </diagram>
</mxfile>
